<!--?xml version="1.0" standalone="no"?-->
              <svg id="sw-js-blob-svg" viewBox="0 0 100 100" xmlns="http://www.w3.org/2000/svg" version="1.1">
                    <defs> 
                        <linearGradient id="sw-gradient" x1="0" x2="1" y1="1" y2="0">
                            <stop id="stop1" stop-color="rgba(183.326, 7.288, 255, 1)" offset="0%"></stop>
                            <stop id="stop2" stop-color="rgba(255, 255, 255, 1)" offset="100%"></stop>
                        </linearGradient>
                    </defs>
                <path fill="url(#sw-gradient)" d="M22.9,-26.6C30.3,-21.1,37.3,-14.4,39.5,-6.3C41.7,1.8,39.1,11.4,33.7,18.3C28.4,25.1,20.2,29.2,11.6,32.8C2.9,36.5,-6.4,39.7,-13.1,36.9C-19.7,34,-23.9,25.1,-29.3,16.5C-34.8,7.9,-41.6,-0.3,-40.6,-7.4C-39.6,-14.4,-30.8,-20.4,-22.8,-25.8C-14.7,-31.2,-7.4,-36.1,0.2,-36.3C7.8,-36.5,15.5,-32.1,22.9,-26.6Z" width="100%" height="100%" transform="translate(50 50)" stroke-width="0" style="transition: all 0.3s ease 0s;" stroke="url(#sw-gradient)"></path>
              </svg>