<!--?xml version="1.0" standalone="no"?-->
              <svg id="sw-js-blob-svg" viewBox="0 0 100 100" xmlns="http://www.w3.org/2000/svg" version="1.1">
                    <defs> 
                        <linearGradient id="sw-gradient" x1="0" x2="1" y1="1" y2="0">
                            <stop id="stop1" stop-color="rgba(183.326, 7.288, 255, 1)" offset="0%"></stop>
                            <stop id="stop2" stop-color="rgba(255, 255, 255, 1)" offset="100%"></stop>
                        </linearGradient>
                    </defs>
                <path fill="url(#sw-gradient)" d="M21.8,-25.8C28.5,-20.4,34.4,-13.7,35.8,-6.3C37.2,1.2,34.1,9.6,29.4,16.4C24.7,23.2,18.5,28.4,10.7,32.7C2.9,36.9,-6.4,40,-12.7,36.9C-19.1,33.8,-22.5,24.4,-27.3,15.8C-32.2,7.3,-38.5,-0.3,-39.3,-8.9C-40.1,-17.4,-35.3,-26.9,-27.8,-32.2C-20.4,-37.5,-10.2,-38.6,-1.3,-37C7.6,-35.5,15.1,-31.2,21.8,-25.8Z" width="100%" height="100%" transform="translate(50 50)" stroke-width="0" style="transition: all 0.3s ease 0s;" stroke="url(#sw-gradient)"></path>
              </svg>