<!--?xml version="1.0" standalone="no"?-->
              <svg id="sw-js-blob-svg" viewBox="0 0 100 100" xmlns="http://www.w3.org/2000/svg" version="1.1">
                    <defs> 
                        <linearGradient id="sw-gradient" x1="0" x2="1" y1="1" y2="0">
                            <stop id="stop1" stop-color="rgba(211.77, 55, 248, 1)" offset="0%"></stop>
                            <stop id="stop2" stop-color="rgba(217.611, 217.611, 217.611, 1)" offset="100%"></stop>
                        </linearGradient>
                    </defs>
                <path fill="url(#sw-gradient)" d="M24.7,-28C32,-23.2,38.2,-15.5,38.9,-7.5C39.6,0.6,34.9,9,29.5,15.9C24.2,22.7,18.2,28.1,10.7,31.8C3.3,35.4,-5.5,37.5,-13.4,35.3C-21.4,33.1,-28.4,26.8,-33.1,18.9C-37.9,11.1,-40.4,1.8,-37.9,-5.6C-35.3,-13,-27.7,-18.5,-20.6,-23.4C-13.4,-28.2,-6.7,-32.4,1,-33.6C8.6,-34.7,17.3,-32.8,24.7,-28Z" width="100%" height="100%" transform="translate(50 50)" stroke-width="0" style="transition: all 0.3s ease 0s;"></path>
              </svg>