<!--?xml version="1.0" standalone="no"?-->
              <svg id="sw-js-blob-svg" viewBox="0 0 100 100" xmlns="http://www.w3.org/2000/svg" version="1.1">
                    <defs> 
                        <linearGradient id="sw-gradient" x1="0" x2="1" y1="1" y2="0">
                            <stop id="stop1" stop-color="rgba(211.77, 55, 248, 1)" offset="0%"></stop>
                            <stop id="stop2" stop-color="rgba(217.611, 217.611, 217.611, 1)" offset="100%"></stop>
                        </linearGradient>
                    </defs>
                <path fill="url(#sw-gradient)" d="M20.9,-25.1C26.9,-19.9,31.4,-13.1,33.1,-5.5C34.8,2.1,33.8,10.5,29.5,16.2C25.2,21.8,17.6,24.7,9.6,28.5C1.7,32.3,-6.7,36.9,-14.5,35.8C-22.2,34.7,-29.3,27.8,-32.2,20C-35,12.1,-33.6,3.2,-32.4,-6.1C-31.2,-15.3,-30.1,-25,-24.7,-30.2C-19.4,-35.5,-9.7,-36.4,-1.1,-35.1C7.5,-33.8,15,-30.3,20.9,-25.1Z" width="100%" height="100%" transform="translate(50 50)" stroke-width="0" style="transition: all 0.3s ease 0s;"></path>
              </svg>