<?xml version="1.0" standalone="no"?>
<!DOCTYPE svg PUBLIC "-//W3C//DTD SVG 20010904//EN"
 "http://www.w3.org/TR/2001/REC-SVG-20010904/DTD/svg10.dtd">
<svg version="1.0" xmlns="http://www.w3.org/2000/svg"
 width="2048.000000pt" height="2048.000000pt" viewBox="0 0 2048.000000 2048.000000"
 preserveAspectRatio="xMidYMid meet">

<g transform="translate(0.000000,2048.000000) scale(0.100000,-0.100000)"
fill="#000000" stroke="none">
<path d="M10050 19101 l0 -870 23 -3 22 -3 3 -3536 2 -3537 -70 -16 c-221 -50
-433 -197 -558 -388 -110 -169 -158 -345 -148 -543 3 -66 9 -136 12 -155 l5
-35 -2356 -1360 c-1296 -747 -2359 -1363 -2361 -1367 -6 -10 237 -438 249
-438 6 0 4238 2439 4699 2708 25 15 28 14 60 -12 181 -148 389 -226 608 -226
508 0 920 412 920 920 0 426 -300 804 -710 896 l-70 16 2 3537 3 3536 23 3 22
3 0 870 0 869 -190 0 -190 0 0 -869z"/>
<path d="M9270 19320 c-52 -9 -94 -35 -133 -80 -122 -143 -16 -362 174 -361
126 0 219 94 219 221 0 141 -121 244 -260 220z"/>
<path d="M11130 19320 c-209 -39 -247 -323 -57 -421 52 -27 142 -27 195 0 57
29 109 93 121 152 34 155 -104 298 -259 269z"/>
<path d="M8300 19160 c-91 -43 -134 -109 -134 -205 0 -178 189 -283 341 -189
119 74 137 248 37 347 -65 65 -165 84 -244 47z"/>
<path d="M12017 19166 c-89 -32 -146 -116 -147 -216 0 -45 6 -66 33 -110 117
-195 411 -113 411 115 0 156 -150 263 -297 211z"/>
<path d="M7430 18931 c-165 -51 -221 -237 -109 -365 74 -84 188 -100 286 -40
90 55 128 182 84 280 -43 95 -166 154 -261 125z"/>
<path d="M12928 18929 c-49 -14 -117 -74 -139 -123 -24 -54 -24 -130 2 -186
27 -60 45 -79 104 -106 224 -106 428 171 261 354 -49 55 -151 82 -228 61z"/>
<path d="M5375 18665 c-88 -51 -160 -97 -160 -102 0 -10 854 -1492 864 -1497
5 -3 310 170 326 186 7 7 -855 1509 -865 1507 -3 0 -77 -43 -165 -94z"/>
<path d="M14501 18009 c-238 -413 -430 -754 -425 -758 5 -5 80 -49 166 -99
158 -91 158 -91 172 -69 78 120 854 1482 849 1488 -9 8 -320 189 -325 189 -2
0 -199 -338 -437 -751z"/>
<path d="M6507 18573 c-118 -69 -149 -208 -74 -320 83 -123 261 -131 356 -16
58 71 67 158 24 244 -41 80 -94 113 -186 117 -64 3 -77 0 -120 -25z"/>
<path d="M13780 18589 c-107 -43 -170 -188 -127 -292 70 -166 294 -192 394
-44 102 152 -1 348 -183 346 -33 0 -70 -5 -84 -10z"/>
<path d="M4899 17642 c-138 -72 -160 -258 -43 -361 172 -151 432 20 360 236
-44 132 -192 190 -317 125z"/>
<path d="M15390 17654 c-88 -38 -149 -141 -136 -230 16 -120 103 -198 221
-198 180 0 284 188 189 341 -54 88 -180 128 -274 87z"/>
<path d="M4221 17078 c-31 -7 -58 -24 -96 -61 -44 -43 -55 -61 -64 -104 -30
-144 72 -273 214 -273 132 0 224 90 225 218 0 150 -131 254 -279 220z"/>
<path d="M16155 17081 c-108 -27 -175 -113 -175 -223 1 -128 93 -218 225 -218
189 0 291 228 163 366 -59 64 -141 93 -213 75z"/>
<path d="M3555 16415 c-98 -26 -177 -149 -158 -247 21 -112 111 -188 223 -188
129 0 219 92 220 223 0 104 -72 195 -172 216 -58 13 -50 13 -113 -4z"/>
<path d="M16804 16419 c-50 -12 -118 -68 -144 -120 -26 -50 -26 -140 -1 -194
76 -165 318 -168 400 -5 45 88 33 174 -35 249 -59 65 -135 90 -220 70z"/>
<path d="M2929 15672 c-94 -49 -142 -167 -109 -268 31 -93 141 -163 236 -150
183 25 264 229 146 366 -71 83 -175 103 -273 52z"/>
<path d="M17354 15681 c-55 -25 -110 -92 -124 -152 -54 -223 223 -373 378
-205 48 53 66 102 60 172 -13 151 -176 248 -314 185z"/>
<path d="M1907 15263 c-82 -140 -187 -326 -185 -328 12 -12 1486 -858 1496
-859 20 -2 203 321 189 332 -14 11 -1487 862 -1492 862 -2 0 -6 -3 -8 -7z"/>
<path d="M17850 14860 c-388 -225 -724 -420 -747 -434 l-43 -25 91 -158 c50
-87 95 -162 100 -167 5 -6 1374 772 1497 852 10 7 -10 49 -82 173 -52 90 -98
164 -103 165 -4 1 -325 -182 -713 -406z"/>
<path d="M2036 14080 c-51 -16 -103 -60 -131 -111 -24 -44 -27 -59 -23 -119 5
-90 39 -143 117 -182 86 -44 173 -35 244 23 155 128 76 379 -125 394 -29 3
-66 0 -82 -5z"/>
<path d="M18307 14076 c-166 -60 -205 -274 -70 -385 71 -58 158 -67 244 -23
78 39 112 92 117 182 4 60 1 75 -23 119 -54 99 -165 143 -268 107z"/>
<path d="M1710 13211 c-163 -50 -220 -235 -112 -361 129 -152 373 -73 390 126
6 74 -18 133 -74 183 -59 52 -138 72 -204 52z"/>
<path d="M18648 13209 c-49 -14 -117 -74 -139 -123 -24 -54 -24 -130 2 -186
27 -60 45 -79 104 -106 224 -106 428 171 261 354 -49 55 -151 82 -228 61z"/>
<path d="M1470 12311 c-77 -25 -118 -62 -151 -135 -48 -109 3 -235 116 -287
97 -44 223 -6 279 84 89 145 -2 327 -172 342 -26 3 -58 1 -72 -4z"/>
<path d="M18886 12306 c-93 -35 -146 -103 -153 -197 -4 -57 -2 -70 24 -119 37
-70 100 -111 179 -118 168 -14 291 153 225 304 -12 27 -32 59 -44 72 -54 58
-159 84 -231 58z"/>
<path d="M1318 11388 c-20 -5 -55 -25 -77 -45 -57 -48 -83 -103 -83 -173 0
-234 316 -306 423 -97 27 52 27 142 0 195 -27 54 -92 107 -146 121 -51 13 -66
13 -117 -1z"/>
<path d="M19038 11388 c-20 -5 -55 -25 -77 -45 -57 -48 -83 -103 -83 -173 0
-234 316 -306 423 -97 27 52 27 142 0 195 -27 54 -92 107 -146 121 -51 13 -66
13 -117 -1z"/>
<path d="M510 10240 l0 -190 870 0 870 0 0 190 0 190 -870 0 -870 0 0 -190z"/>
<path d="M18230 10240 l0 -190 870 0 870 0 0 190 0 190 -870 0 -870 0 0 -190z"/>
<path d="M1290 9514 c-113 -49 -167 -193 -111 -301 108 -213 423 -139 422 98
0 92 -51 169 -133 203 -47 20 -132 20 -178 0z"/>
<path d="M19010 9514 c-113 -49 -167 -193 -111 -301 108 -213 423 -139 422 98
0 92 -51 169 -133 203 -47 20 -132 20 -178 0z"/>
<path d="M1435 8591 c-113 -52 -164 -178 -116 -287 42 -94 108 -138 206 -138
172 0 277 173 197 325 -54 104 -182 148 -287 100z"/>
<path d="M18840 8578 c-195 -118 -113 -412 115 -412 98 0 164 44 206 138 64
145 -47 305 -211 306 -45 0 -66 -6 -110 -32z"/>
<path d="M1674 7691 c-85 -39 -146 -150 -129 -238 33 -176 232 -250 365 -135
80 68 102 170 56 267 -27 59 -46 77 -106 104 -56 26 -132 26 -186 2z"/>
<path d="M18615 7686 c-59 -27 -77 -46 -104 -106 -42 -93 -19 -196 59 -262 78
-68 180 -73 268 -15 112 76 132 225 44 327 -68 80 -170 102 -267 56z"/>
<path d="M1999 6813 c-78 -40 -112 -93 -117 -183 -4 -60 -1 -75 24 -119 86
-159 312 -157 393 3 100 196 -103 398 -300 299z"/>
<path d="M18295 6826 c-165 -72 -189 -294 -42 -393 114 -77 256 -42 321 78 25
44 28 59 24 119 -3 57 -9 77 -33 112 -57 81 -185 121 -270 84z"/>
<path d="M2470 5979 c-410 -237 -746 -432 -748 -433 -3 -4 175 -315 187 -329
6 -6 1455 821 1498 855 8 7 -14 53 -82 171 -52 89 -98 163 -102 164 -4 1 -343
-191 -753 -428z"/>
<path d="M17158 6248 c-71 -121 -93 -166 -84 -174 25 -25 1490 -864 1497 -857
4 5 48 80 99 167 69 121 88 161 78 168 -33 21 -1470 849 -1482 854 -9 3 -45
-48 -108 -158z"/>
<path d="M2955 5215 c-85 -33 -144 -120 -145 -211 -1 -188 227 -294 366 -171
97 85 106 231 20 325 -53 59 -165 85 -241 57z"/>
<path d="M17390 5221 c-165 -51 -221 -237 -109 -365 50 -56 109 -80 183 -74
193 16 276 251 135 385 -55 52 -141 74 -209 54z"/>
<path d="M3530 4484 c-98 -42 -152 -149 -129 -256 9 -40 22 -62 63 -103 42
-44 60 -55 104 -64 144 -30 272 72 272 216 -1 132 -92 224 -222 223 -29 -1
-69 -8 -88 -16z"/>
<path d="M16765 4481 c-80 -37 -125 -111 -125 -206 0 -142 130 -244 272 -214
74 16 151 93 167 167 23 108 -31 215 -131 256 -50 21 -134 20 -183 -3z"/>
<path d="M4179 3820 c-92 -49 -139 -150 -118 -252 9 -44 20 -62 64 -104 77
-76 162 -90 255 -43 166 83 158 332 -12 403 -52 22 -144 20 -189 -4z"/>
<path d="M16105 3821 c-165 -76 -168 -318 -5 -400 52 -27 95 -32 152 -20 74
16 151 93 167 167 22 103 -27 205 -120 252 -50 26 -140 26 -194 1z"/>
<path d="M5645 2672 c-236 -411 -430 -751 -430 -755 0 -9 325 -200 331 -195 5
6 856 1481 860 1493 3 8 -57 49 -160 109 -91 53 -167 96 -168 96 -2 -1 -196
-337 -433 -748z"/>
<path d="M14235 3324 c-88 -51 -160 -99 -159 -106 1 -11 847 -1484 859 -1496
3 -4 313 174 328 187 7 7 -831 1472 -857 1497 -8 9 -52 -13 -171 -82z"/>
<path d="M4938 3249 c-49 -14 -117 -74 -139 -123 -63 -138 34 -301 185 -314
70 -6 119 12 172 60 91 84 96 223 10 316 -49 55 -151 82 -228 61z"/>
<path d="M15420 3251 c-173 -53 -226 -260 -96 -379 53 -48 102 -66 172 -60
151 13 248 176 185 314 -43 95 -166 154 -261 125z"/>
<path d="M6553 2316 c-110 -35 -175 -139 -159 -251 10 -63 56 -127 117 -159
44 -25 59 -28 119 -24 57 3 77 9 112 33 81 57 121 182 85 268 -45 107 -168
167 -274 133z"/>
<path d="M13815 2321 c-73 -19 -133 -70 -162 -138 -36 -86 4 -211 85 -268 35
-24 55 -30 112 -33 60 -4 75 -1 119 24 120 65 155 207 78 321 -49 73 -152 115
-232 94z"/>
<path d="M10050 1380 l0 -870 190 0 190 0 0 870 0 870 -190 0 -190 0 0 -870z"/>
<path d="M7394 1971 c-85 -39 -146 -150 -129 -238 33 -176 232 -250 365 -135
80 68 102 170 56 267 -27 59 -46 77 -106 104 -56 26 -132 26 -186 2z"/>
<path d="M12895 1966 c-59 -27 -77 -46 -104 -106 -88 -194 118 -388 309 -290
125 64 156 232 62 340 -68 80 -170 102 -267 56z"/>
<path d="M8315 1740 c-85 -26 -149 -119 -149 -215 0 -200 236 -299 378 -158
136 134 47 370 -142 380 -31 1 -70 -2 -87 -7z"/>
<path d="M11989 1722 c-104 -54 -148 -182 -100 -287 52 -113 178 -164 287
-116 94 42 138 108 138 206 0 172 -173 277 -325 197z"/>
<path d="M9270 1600 c-53 -10 -94 -35 -134 -81 -121 -142 -15 -361 175 -360
126 0 219 94 219 221 0 141 -123 246 -260 220z"/>
<path d="M11130 1600 c-209 -39 -247 -323 -57 -421 52 -27 142 -27 195 0 57
29 109 93 121 152 34 155 -104 298 -259 269z"/>
</g>
</svg>
