<?xml version="1.0" standalone="no"?>
<!DOCTYPE svg PUBLIC "-//W3C//DTD SVG 20010904//EN"
 "http://www.w3.org/TR/2001/REC-SVG-20010904/DTD/svg10.dtd">
<svg version="1.0" xmlns="http://www.w3.org/2000/svg"
 width="361.000000pt" height="400.000000pt" viewBox="0 0 361.000000 400.000000"
 preserveAspectRatio="xMidYMid meet">

<g transform="translate(0.000000,400.000000) scale(0.100000,-0.100000)"
fill="#000000" stroke="none">
<path d="M780 3754 c-358 -94 -620 -511 -556 -884 20 -114 59 -202 117 -265
53 -57 105 -85 174 -92 l53 -6 -34 -71 c-47 -103 -99 -281 -124 -431 -32 -182
-32 -427 -1 -573 52 -246 152 -410 316 -518 51 -33 66 -50 98 -112 43 -82 77
-110 184 -149 81 -30 230 -42 286 -24 33 11 38 10 85 -23 54 -39 117 -64 144
-58 19 4 34 44 24 61 -4 6 -35 25 -69 43 -34 18 -88 58 -119 88 l-57 55 29 96
c53 178 65 280 65 541 l0 238 101 0 c100 0 103 -1 135 -31 18 -16 45 -33 60
-36 22 -4 28 -12 34 -42 18 -105 101 -203 204 -242 79 -30 221 -24 301 13 111
51 177 131 204 247 27 117 133 189 219 150 17 -8 27 -24 35 -57 6 -26 15 -58
18 -71 6 -22 5 -23 -25 -16 -52 11 -52 -18 1 -69 25 -24 48 -54 52 -69 14 -59
-38 -115 -97 -103 -17 4 -56 22 -85 42 -60 39 -81 40 -99 4 -10 -20 -10 -29 1
-44 20 -30 120 -78 174 -84 86 -8 162 49 178 134 l6 32 59 -31 c73 -38 151
-40 224 -8 26 12 49 21 51 21 2 0 4 -14 4 -30 0 -17 14 -101 31 -188 43 -210
43 -297 2 -383 -58 -122 -143 -203 -288 -274 -171 -84 -360 -120 -632 -120
l-182 0 -102 53 c-96 50 -102 52 -125 37 -33 -21 -30 -48 10 -93 42 -46 119
-85 201 -102 139 -30 429 -9 646 45 340 85 545 257 596 499 18 87 14 132 -37
376 -51 247 -51 243 -8 326 20 38 43 94 52 124 13 44 24 61 56 85 66 48 65
106 -4 139 -33 15 -35 19 -28 49 15 66 7 378 -12 482 -45 248 -114 386 -270
540 -173 171 -387 273 -693 331 -117 22 -480 31 -611 14 -88 -11 -213 -33
-252 -45 -12 -4 -19 8 -28 54 -39 189 -224 373 -428 426 -72 19 -191 18 -264
-1z m281 -100 c78 -23 125 -50 180 -101 59 -55 103 -122 128 -195 37 -109 40
-103 -81 -158 -167 -74 -293 -163 -438 -309 -91 -91 -143 -154 -190 -228 -47
-74 -71 -102 -86 -103 -36 0 -123 51 -159 94 -206 252 -86 761 222 942 120 70
300 95 424 58z m1258 -434 c122 -22 376 -102 461 -145 237 -119 408 -351 484
-655 33 -132 49 -320 35 -398 -6 -31 -12 -59 -14 -60 -8 -8 -79 81 -103 130
-41 83 -139 171 -342 308 -217 145 -325 243 -314 284 7 29 -3 96 -14 96 -5 0
-18 -32 -31 -70 -44 -137 -178 -297 -333 -397 -219 -141 -514 -233 -766 -238
-161 -3 -161 -3 -138 -122 9 -48 20 -113 24 -144 l9 -56 -151 -6 c-227 -8
-359 -46 -330 -94 15 -24 49 -28 88 -9 47 22 153 36 283 36 l113 0 6 -26 c4
-14 4 -126 1 -248 -9 -318 -43 -500 -114 -609 -16 -24 -16 -29 -3 -38 8 -5 27
-7 41 -5 19 4 33 -2 49 -19 22 -23 22 -23 2 -34 -48 -26 -161 -7 -225 36 -33
23 -108 111 -170 198 -10 13 -44 43 -76 64 -155 106 -245 260 -283 484 -17
100 -14 388 6 519 51 346 174 589 415 820 254 244 572 382 976 422 81 8 307
-5 414 -24z m219 -654 c22 -41 110 -135 177 -189 17 -13 75 -55 130 -94 106
-75 215 -168 215 -184 0 -15 -26 -10 -71 15 -58 32 -164 66 -205 66 -65 0 -81
-77 -21 -99 12 -5 46 -12 75 -16 57 -8 64 -16 29 -32 -41 -19 -90 -67 -129
-128 l-39 -60 -87 3 c-55 2 -107 -3 -142 -12 -30 -9 -56 -12 -58 -7 -2 5 -17
30 -34 56 -60 90 -177 141 -301 132 -40 -2 -64 -1 -55 4 19 11 133 29 184 29
73 0 96 53 41 93 -25 19 -32 20 -94 10 -98 -17 -201 -72 -262 -139 -28 -31
-51 -61 -51 -68 0 -12 -139 -143 -195 -184 -28 -21 -40 -22 -145 -20 l-114 3
-12 85 c-7 47 -14 98 -16 115 l-3 30 84 8 c255 23 532 116 724 244 132 88 271
237 323 346 10 20 20 37 23 37 3 0 17 -20 29 -44z m547 -581 c17 -1 35 -3 41
-4 28 -3 34 -76 23 -272 -5 -107 -12 -199 -14 -206 -2 -7 -27 -24 -54 -38 -87
-44 -164 -30 -233 41 -56 58 -81 125 -74 188 19 151 160 319 251 301 17 -4 44
-8 60 -10z m-884 -75 c91 -25 145 -99 156 -213 17 -187 -111 -329 -297 -329
-161 0 -270 96 -270 239 0 84 16 129 63 180 93 101 240 153 348 123z m1039
-58 c0 -15 -5 -34 -10 -42 -7 -11 -10 -2 -10 33 0 30 4 46 10 42 6 -3 10 -18
10 -33z"/>
<path d="M2866 1871 c-37 -38 -45 -102 -19 -150 22 -43 43 -56 74 -48 34 9 59
65 59 132 0 46 -4 56 -26 74 -36 28 -55 26 -88 -8z"/>
<path d="M2062 1878 c-16 -18 -22 -41 -27 -98 -8 -96 5 -125 55 -125 31 0 37
5 55 40 27 57 33 160 10 185 -24 27 -67 25 -93 -2z"/>
<path d="M2721 1035 c-92 -81 -171 -83 -256 -4 -46 43 -73 49 -98 21 -28 -30
-21 -64 21 -104 132 -129 357 -91 413 71 8 24 8 35 -1 46 -18 22 -24 20 -79
-30z"/>
</g>
</svg>
